<svg xmlns="http://www.w3.org/2000/svg" width="375" viewBox="0 0 375 375" height="375" version="1.0"><defs><clipPath id="a"><path d="M 34.40625 77.261719 L 174 77.261719 L 174 298.042969 L 34.40625 298.042969 Z M 34.40625 77.261719"/></clipPath><clipPath id="b"><path d="M 119 119 L 255.1875 119 L 255.1875 256 L 119 256 Z M 119 119"/></clipPath><clipPath id="c"><path d="M 201 76.949219 L 340.585938 76.949219 L 340.585938 297.730469 L 201 297.730469 Z M 201 76.949219"/></clipPath><clipPath id="d"><path d="M 119.804688 119 L 256 119 L 256 256 L 119.804688 256 Z M 119.804688 119"/></clipPath></defs><g clip-path="url(#a)"><path d="M 145.242188 77.261719 L 34.851562 187.652344 L 145.242188 298.042969 L 173.347656 269.9375 L 91.058594 187.652344 L 173.347656 105.367188"/></g><g clip-path="url(#b)"><path fill="#8C52FF" d="M 255.1875 187.652344 L 187.289062 255.550781 L 119.386719 187.652344 L 187.289062 119.75 Z M 255.1875 187.652344"/></g><path fill="#FFF" d="M 135.757812 187.652344 L 186.566406 136.839844 L 237.375 187.652344 L 186.566406 238.464844 Z M 186.566406 145.128906 L 144.046875 187.652344 L 186.566406 230.175781 L 229.089844 187.652344 Z M 186.566406 145.128906"/><g clip-path="url(#c)"><path d="M 229.753906 297.730469 L 340.144531 187.339844 L 229.753906 76.949219 L 201.648438 105.054688 L 283.933594 187.339844 L 201.648438 269.625"/></g><g clip-path="url(#d)"><path fill="#8C52FF" d="M 119.804688 187.34375 L 187.707031 119.441406 L 255.605469 187.339844 L 187.703125 255.242188 Z M 119.804688 187.34375"/></g><path fill="#FFF" d="M 239.234375 187.34375 L 188.429688 238.152344 L 137.617188 187.34375 L 188.429688 136.527344 Z M 188.425781 229.863281 L 230.945312 187.34375 L 188.425781 144.820312 L 145.90625 187.34375 Z M 188.425781 229.863281"/></svg>